IKResults
version=1
nRows=4
nColumns=63
inDegrees=yes

Units are S.I. units (second, meters, Newtons, ...)
If the header above contains a line with 'inDegrees', this indicates whether rotational values are in degrees (yes) or radians (no).

endheader
time	pelvis_tilt	pelvis_list	pelvis_rotation	pelvis_tx	pelvis_ty	pelvis_tz	hip_flexion_r	hip_adduction_r	hip_rotation_r	knee_angle_r	knee_angle_r_beta	ankle_angle_r	subtalar_angle_r	mtp_angle_r	hip_flexion_l	hip_adduction_l	hip_rotation_l	knee_angle_l	knee_angle_l_beta	ankle_angle_l	subtalar_angle_l	mtp_angle_l	L5_S1_Flex_Ext	L5_S1_Lat_Bending	L5_S1_axial_rotation	L4_L5_Flex_Ext	L4_L5_Lat_Bending	L4_L5_axial_rotation	L3_L4_Flex_Ext	L3_L4_Lat_Bending	L3_L4_axial_rotation	L2_L3_Flex_Ext	L2_L3_Lat_Bending	L2_L3_axial_rotation	L1_L2_Flex_Ext	L1_L2_Lat_Bending	L1_L2_axial_rotation	L1_T12_Flex_Ext	L1_T12_Lat_Bending	L1_T12_axial_rotation	Abs_r3	Abs_r2	Abs_r1	Abs_t1	Abs_t2	neck_flexion	neck_bending	neck_rotation	arm_flex_r	arm_add_r	arm_rot_r	elbow_flex_r	pro_sup_r	wrist_flex_r	wrist_dev_r	arm_flex_l	arm_add_l	arm_rot_l	elbow_flex_l	pro_sup_l	wrist_flex_l	wrist_dev_l
      6.03333333	    135.54266634	    -85.67440379	     94.56134956	     -0.79846486	      0.32985171	     -0.34675693	      5.30425971	     27.04491133	     35.53131383	     78.40834336	      1.36848375	    -48.02689912	     14.50841815	      0.00000000	     48.50225459	    -31.31192212	     -3.58680943	     49.81861125	      0.86949880	    -20.07053975	    -19.75295918	      0.00000000	     -3.88103329	      0.07955714	     11.87514430	     -7.20746693	      0.10581099	     12.61734082	     -6.37614960	      0.19343522	     12.61734082	     -4.43563295	      0.19343522	     10.39075126	     -3.60392751	      0.16223291	      9.64855474	     -2.21762242	      0.12323401	      8.90635822	    -27.72183270	      0.89996625	     66.04599005	      0.00000000	      0.00000000	     28.38165635	    -10.87435943	     44.75501087	     47.85083723	      2.57927929	      6.50400443	     21.15265310	     89.99559364	      0.00000000	      0.00000000	    -34.23232203	   -194.97159168	   -209.26531724	     25.42764600	     89.99559364	      0.00000000	      0.00000000
      6.06666667	    135.45976954	    -85.66166678	     94.52983285	     -0.79894382	      0.32967835	     -0.34688296	      5.35122574	     26.88584176	     35.28072719	     78.46972135	      1.36955500	    -47.16611740	     14.45616479	      0.00000000	     48.41148806	    -31.25153157	     -3.62584245	     49.60218376	      0.86572142	    -19.80941578	    -19.75108676	      0.00000000	     -3.89707603	      0.08000434	     11.88185699	     -7.23725990	      0.10640577	     12.62447305	     -6.40250621	      0.19452255	     12.62447305	     -4.45396820	      0.19452255	     10.39662487	     -3.61882480	      0.16314485	      9.65400880	     -2.22678924	      0.12392672	      8.91139274	    -27.83642438	      0.90502508	     66.08332402	      0.00000000	      0.00000000	     28.38023124	    -10.75865153	     44.75524448	     47.98881627	      2.45126648	      6.57421001	     21.09474053	     89.99559364	      0.00000000	      0.00000000	    -34.11975358	   -194.96033880	   -209.29951492	     25.39874457	     89.99559364	      0.00000000	      0.00000000
      6.10000000	    135.09637822	    -85.61064020	     94.52840292	     -0.79890072	      0.32926964	     -0.34696612	      5.26495971	     26.79986779	     35.00646708	     78.63244673	      1.37239509	    -45.19165598	     14.24706676	      0.00000000	     48.30955403	    -31.02833942	     -3.78140532	     49.28804556	      0.86023868	    -19.31013546	    -19.74620706	      0.00000000	     -3.90961513	      0.08955828	     11.82344501	     -7.26054626	      0.11911251	     12.56241032	     -6.42310670	      0.21775200	     12.56241032	     -4.46829914	      0.21775200	     10.34551438	     -3.63046861	      0.18262725	      9.60654907	     -2.23395409	      0.13872578	      8.86758375	    -27.92598993	      1.01310119	     65.75845409	      0.00000000	      0.00000000	     28.37856120	    -10.61701721	     44.75467034	     48.08167803	      2.36703422	      6.75029465	     21.02895877	     89.99559364	      0.00000000	      0.00000000	    -34.02757118	   -194.93691939	   -209.34409722	     25.33925568	     89.99559364	      0.00000000	      0.00000000
      6.13333333	    134.72818051	    -85.61877095	     94.43358505	     -0.79908746	      0.32893906	     -0.34694270	      5.29141784	     26.68193615	     34.70152255	     78.74386430	      1.37433970	    -43.83385169	     14.06863452	      0.00000000	     48.34053833	    -30.82974046	     -3.79942454	     49.10014656	      0.85695922	    -19.05429095	    -19.74400578	      0.00000000	     -3.91738994	      0.09146880	     11.77921554	     -7.27498487	      0.12165350	     12.51541651	     -6.43587994	      0.22239724	     12.51541651	     -4.47718497	      0.22239724	     10.30681360	     -3.63768830	      0.18652317	      9.57061263	     -2.23839661	      0.14168517	      8.83441165	    -27.98152463	      1.03471334	     65.51246307	      0.00000000	      0.00000000	     28.37425332	    -10.46427925	     44.75470239	     48.20540810	      2.29769389	      6.90840451	     20.95783692	     89.99559364	      0.00000000	      0.00000000	    -33.91285199	   -194.91545964	   -209.35307067	     25.26855762	     89.99559364	      0.00000000	      0.00000000
